<svg xmlns="http://www.w3.org/2000/svg" xmlns:xlink="http://www.w3.org/1999/xlink" width="1920" height="1080" viewBox="0 0 1920 1080">
  <defs>
    <clipPath id="clip-Web_1920_10">
      <rect width="1920" height="1080"/>
    </clipPath>
  </defs>
  <g id="Web_1920_10" data-name="Web 1920 – 10" clip-path="url(#clip-Web_1920_10)">
    <rect width="1920" height="1080" fill="#111"/>
    <text id="Joke_about:" data-name="Joke about:" transform="translate(597 1031)" fill="#45ff00" font-size="20" font-family="VT323-Regular, VT323"><tspan x="0" y="0">Joke about:</tspan></text>
    <text id="Chuck_Norris" data-name="Chuck Norris" transform="translate(698 1031)" fill="#45ff00" font-size="20" font-family="VT323-Regular, VT323"><tspan x="0" y="0">Chuck Norris</tspan></text>
    <text id="_10" data-name="10" transform="translate(803 259)" fill="#45ff00" font-size="20" font-family="VT323-Regular, VT323"><tspan x="0" y="0">10</tspan></text>
    <text id="_3" data-name="3" transform="translate(743 259)" fill="#45ff00" font-size="20" font-family="VT323-Regular, VT323"><tspan x="0" y="0">3</tspan></text>
    <text id="Nerdy_" data-name="Nerdy?" transform="translate(1161 256)" fill="#45ff00" font-size="20" font-family="VT323-Regular, VT323"><tspan x="0" y="0">Nerdy?</tspan></text>
    <text id="How_many:_1" data-name="How many: 1" transform="translate(597 259)" fill="#45ff00" font-size="20" font-family="VT323-Regular, VT323"><tspan x="0" y="0">How many: 1</tspan></text>
    <text id="The_Chuck_Norris_Joke_Generator" data-name="The Chuck Norris Joke Generator" transform="translate(588 197)" fill="#45ff00" font-size="60" font-family="VT323-Regular, VT323"><tspan x="0" y="0">The Chuck Norris Joke Generator</tspan></text>
    <g id="Rectangle_3" data-name="Rectangle 3" transform="translate(597 303)" fill="none" stroke="#45ff00" stroke-width="1">
      <rect width="735" height="686" stroke="none"/>
      <rect x="0.5" y="0.5" width="734" height="685" fill="none"/>
    </g>
    <rect id="Rectangle_1" data-name="Rectangle 1" width="109" height="37" transform="translate(1223 234)" fill="#45ff00"/>
    <text id="Generate_" data-name="Generate
" transform="translate(1246 242)" fill="#111" font-size="20" font-family="VT323-Regular, VT323"><tspan x="0" y="16">Generate</tspan></text>
    <text id="Chuck_Norris_has_never_been_in_a_fight_ever._Do_you_call_one_roundhouse_kick_to_the_face_a_fight_" data-name="Chuck Norris has never been in a fight, ever. Do you call one roundhouse kick to the 
face a fight?
" transform="translate(618 343)" fill="#45ff00" font-size="20" font-family="VT323-Regular, VT323"><tspan x="0" y="0">Chuck Norris has never been in a fight, ever. Do you call one roundhouse kick to the </tspan><tspan x="0" y="24">face a fight?</tspan><tspan x="0" y="48"></tspan></text>
    <rect id="Rectangle_4" data-name="Rectangle 4" width="735" height="85" transform="translate(597 395)" fill="#45ff00"/>
    <g id="Rectangle_8" data-name="Rectangle 8" transform="translate(597 480)" fill="none" stroke="#45ff00" stroke-width="1">
      <rect width="735" height="85" stroke="none"/>
      <rect x="0.5" y="0.5" width="734" height="84" fill="none"/>
    </g>
    <text id="If_by_some_incredible_space-time_paradox_Chuck_Norris_would_ever_fight_himself_he_d_win._Period._" data-name="If, by some incredible space-time paradox, Chuck Norris would ever fight himself, he’d 
win. Period.
" transform="translate(618 432)" fill="#111" font-size="20" font-family="VT323-Regular, VT323"><tspan x="0" y="0">If, by some incredible space-time paradox, Chuck Norris would ever fight himself, he’d </tspan><tspan x="0" y="24">win. Period.</tspan><tspan x="0" y="48"></tspan></text>
    <text id="When_Chuck_Norris_is_web_surfing_websites_get_the_message_Warning:_Internet_Explorer_has_deemed_this_user_to_be_malicious_or_dangerous._Proceed_." data-name="When Chuck Norris is web surfing websites get the message “Warning: Internet Explorer 
has deemed this user to be malicious or dangerous. Proceed?”." transform="translate(618 517)" fill="#45ff00" font-size="20" font-family="VT323-Regular, VT323"><tspan x="0" y="0">When Chuck Norris is web surfing websites get the message “Warning: Internet Explorer </tspan><tspan x="0" y="24">has deemed this user to be malicious or dangerous. Proceed?”.</tspan></text>
    <g id="Rectangle_9" data-name="Rectangle 9" transform="translate(1121 237)" fill="none" stroke="#45ff00" stroke-width="3">
      <rect width="30" height="30" rx="4" stroke="none"/>
      <rect x="1.5" y="1.5" width="27" height="27" rx="2.5" fill="none"/>
    </g>
    <g id="Rectangle_7" data-name="Rectangle 7" transform="translate(692 1007)" fill="none" stroke="#45ff00" stroke-width="1">
      <rect width="120" height="38" stroke="none"/>
      <rect x="0.5" y="0.5" width="119" height="37" fill="none"/>
    </g>
    <g id="Rectangle_663" data-name="Rectangle 663" transform="translate(692 238)" fill="none" stroke="#45ff00" stroke-width="3">
      <rect width="30" height="30" rx="15" stroke="none"/>
      <rect x="1.5" y="1.5" width="27" height="27" rx="13.5" fill="none"/>
    </g>
    <g id="Rectangle_667" data-name="Rectangle 667" transform="translate(826 239)" fill="none" stroke="#45ff00" stroke-width="3">
      <rect width="30" height="30" rx="15" stroke="none"/>
      <rect x="1.5" y="1.5" width="27" height="27" rx="13.5" fill="none"/>
    </g>
    <g id="Rectangle_664" data-name="Rectangle 664" transform="translate(758 239)" fill="none" stroke="#45ff00" stroke-width="3">
      <rect width="30" height="30" rx="15" stroke="none"/>
      <rect x="1.5" y="1.5" width="27" height="27" rx="13.5" fill="none"/>
    </g>
    <rect id="Rectangle_666" data-name="Rectangle 666" width="14" height="14" rx="7" transform="translate(766 247)" fill="#45ff00"/>
    <path id="Path_207" data-name="Path 207" d="M6.5,10.8,0,4.3,2.1,2.2,6.5,6.5,13,0l2.1,2.1Z" transform="translate(1128 248)" fill="#45ff00"/>
  </g>
</svg>
